# xmcd
#
# Track frame offsets: 
#        150
#        19445
#        38571
#        58246
#        80284
#        100310
#        120872
#        141040
#        159672
#        178131
#        197931
#
# Disc length: 2865 seconds
#
# Revision: 0
# Processed by: cddbd v1.5.2PL0 Copyright (c) Steve Scherf et al.
# Submitted via: ExactAudioCopyFreeDBPlugin 1.0
#
DISCID=920b2f0b
DTITLE=Jacky Rapon - Authentique
DYEAR=2012
DGENRE=World
TTITLE0=Maéva
TTITLE1=Pas Que Des Mots
TTITLE2=Wonderful
TTITLE3=Au Maximum
TTITLE4=Desl Fleurs Et Des Poèmes
TTITLE5=Pa Pè
TTITLE6=Calin Doux
TTITLE7=Mal De T'aimer
TTITLE8=Te Revoir
TTITLE9=Je T'aime D'armour
TTITLE10=Il Te Guidera
EXTD=
EXTT0=
EXTT1=
EXTT2=
EXTT3=
EXTT4=
EXTT5=
EXTT6=
EXTT7=
EXTT8=
EXTT9=
EXTT10=
PLAYORDER=
